<svg viewBox="0 0 93 41" fill="none" xmlns="http://www.w3.org/2000/svg">
  <path
    d="M7.296 32.336C5.632 32.336 4.232 31.968 3.096 31.232C1.96 30.48 1.16 29.464 0.696 28.184L3.528 26.528C4.184 28.24 5.472 29.096 7.392 29.096C8.32 29.096 9 28.928 9.432 28.592C9.864 28.256 10.08 27.832 10.08 27.32C10.08 26.728 9.816 26.272 9.288 25.952C8.76 25.616 7.816 25.256 6.456 24.872C5.704 24.648 5.064 24.424 4.536 24.2C4.024 23.976 3.504 23.68 2.976 23.312C2.464 22.928 2.072 22.448 1.8 21.872C1.528 21.296 1.392 20.624 1.392 19.856C1.392 18.336 1.928 17.128 3 16.232C4.088 15.32 5.392 14.864 6.912 14.864C8.272 14.864 9.464 15.2 10.488 15.872C11.528 16.528 12.336 17.448 12.912 18.632L10.128 20.24C9.456 18.8 8.384 18.08 6.912 18.08C6.224 18.08 5.68 18.24 5.28 18.56C4.896 18.864 4.704 19.264 4.704 19.76C4.704 20.288 4.92 20.72 5.352 21.056C5.8 21.376 6.648 21.728 7.896 22.112C8.408 22.272 8.792 22.4 9.048 22.496C9.32 22.576 9.68 22.712 10.128 22.904C10.592 23.08 10.944 23.248 11.184 23.408C11.44 23.568 11.728 23.784 12.048 24.056C12.368 24.328 12.608 24.608 12.768 24.896C12.944 25.184 13.088 25.536 13.2 25.952C13.328 26.352 13.392 26.792 13.392 27.272C13.392 28.824 12.824 30.056 11.688 30.968C10.568 31.88 9.104 32.336 7.296 32.336ZM22.179 15.2C23.795 15.2 25.155 15.744 26.259 16.832C27.363 17.92 27.915 19.256 27.915 20.84C27.915 22.424 27.363 23.76 26.259 24.848C25.155 25.936 23.795 26.48 22.179 26.48H19.227V32H15.915V15.2H22.179ZM22.179 23.384C22.883 23.384 23.467 23.144 23.931 22.664C24.395 22.168 24.627 21.56 24.627 20.84C24.627 20.104 24.395 19.496 23.931 19.016C23.467 18.536 22.883 18.296 22.179 18.296H19.227V23.384H22.179ZM39.7672 32L36.3832 26.168H33.8632V32H30.5512V15.2H37.2712C38.8232 15.2 40.1432 15.744 41.2313 16.832C42.3192 17.92 42.8632 19.232 42.8632 20.768C42.8632 21.808 42.5672 22.776 41.9752 23.672C41.3832 24.552 40.5992 25.216 39.6232 25.664L43.3433 32H39.7672ZM33.8632 18.296V23.264H37.2712C37.8952 23.264 38.4312 23.024 38.8792 22.544C39.3272 22.048 39.5512 21.456 39.5512 20.768C39.5512 20.08 39.3272 19.496 38.8792 19.016C38.4312 18.536 37.8952 18.296 37.2712 18.296H33.8632ZM59.7219 29.816C58.0259 31.496 55.9619 32.336 53.5299 32.336C51.0979 32.336 49.0339 31.496 47.3379 29.816C45.6579 28.12 44.8179 26.048 44.8179 23.6C44.8179 21.152 45.6579 19.088 47.3379 17.408C49.0339 15.712 51.0979 14.864 53.5299 14.864C55.9619 14.864 58.0259 15.712 59.7219 17.408C61.4179 19.088 62.2659 21.152 62.2659 23.6C62.2659 26.048 61.4179 28.12 59.7219 29.816ZM49.6659 27.56C50.7059 28.584 51.9939 29.096 53.5299 29.096C55.0659 29.096 56.3539 28.584 57.3939 27.56C58.4339 26.52 58.9539 25.2 58.9539 23.6C58.9539 22 58.4339 20.68 57.3939 19.64C56.3539 18.6 55.0659 18.08 53.5299 18.08C51.9939 18.08 50.7059 18.6 49.6659 19.64C48.6259 20.68 48.1059 22 48.1059 23.6C48.1059 25.2 48.6259 26.52 49.6659 27.56ZM71.2206 32.336C69.3486 32.336 67.8126 31.808 66.6126 30.752C65.4126 29.696 64.8126 28.28 64.8126 26.504V15.2H68.1006V26.24C68.1006 27.12 68.3486 27.816 68.8446 28.328C69.3566 28.84 70.1486 29.096 71.2206 29.096C72.2926 29.096 73.0766 28.84 73.5726 28.328C74.0846 27.816 74.3406 27.12 74.3406 26.24V15.2H77.6526V26.504C77.6526 28.28 77.0526 29.696 75.8526 30.752C74.6526 31.808 73.1086 32.336 71.2206 32.336ZM92.2283 15.2V18.368H87.6923V32H84.3803V18.368H79.8683V15.2H92.2283Z"
    fill="#383634" />
  <path
    d="M71.3094 17.0312C71.0486 -0.945289 58.4523 2.11691 58.4523 2.11691C60.2442 10.5472 66.7856 9.15675 66.7856 9.15675L64.1947 5.54647"
    stroke="#4C7C7D" stroke-width="2" />
</svg>