<svg width="100" height="24" viewBox="0 0 100 24" fill="none" xmlns="http://www.w3.org/2000/svg">
<path d="M37.2898 5.46564H31.7731C31.3956 5.46564 31.0745 5.73317 31.0151 6.09599L28.784 19.8762C28.7736 19.9402 28.7776 20.0056 28.7957 20.068C28.8138 20.1303 28.8456 20.1881 28.8889 20.2373C28.9321 20.2865 28.9858 20.3259 29.0463 20.3529C29.1068 20.3799 29.1725 20.3938 29.239 20.3936H31.8731C32.2499 20.3936 32.5716 20.1261 32.6303 19.7626L33.2318 16.0454C33.2898 15.6819 33.6122 15.4143 33.989 15.4143H35.7354C39.3695 15.4143 41.4666 13.7019 42.0144 10.3073C42.2608 8.82211 42.0245 7.65528 41.3115 6.83787C40.5267 5.9407 39.1361 5.46564 37.2898 5.46564ZM37.926 10.4986C37.6245 12.4271 36.1122 12.427 34.6492 12.427H33.8166L34.4006 8.82564C34.4177 8.72027 34.4729 8.62432 34.5562 8.55508C34.6395 8.48584 34.7455 8.44786 34.855 8.44799H35.2369C36.2332 8.44799 37.1724 8.44799 37.6586 9.0007C37.9485 9.33105 38.0369 9.82164 37.9267 10.4986H37.926ZM53.7803 10.4365H51.1376C51.028 10.4365 50.922 10.4746 50.8388 10.544C50.7555 10.6133 50.7003 10.7094 50.6832 10.8148L50.5673 11.5348L50.3818 11.2736C49.8093 10.4647 48.534 10.1943 47.2615 10.1943C44.3427 10.1943 41.8485 12.3487 41.3629 15.3699C41.1108 16.8769 41.4702 18.3183 42.3477 19.3228C43.1521 20.2475 44.3042 20.6322 45.6753 20.6322C48.0274 20.6322 49.3318 19.1591 49.3318 19.1591L49.2137 19.8741C49.2031 19.9381 49.2069 20.0035 49.2248 20.066C49.2427 20.1284 49.2743 20.1862 49.3175 20.2356C49.3606 20.2849 49.4142 20.3245 49.4746 20.3517C49.535 20.3789 49.6008 20.3929 49.6673 20.3929H52.047C52.4253 20.3929 52.7448 20.1254 52.8043 19.7619L54.2318 10.9539C54.2424 10.8901 54.2386 10.8248 54.2208 10.7626C54.2029 10.7003 54.1714 10.6426 54.1284 10.5934C54.0854 10.5442 54.032 10.5047 53.9717 10.4776C53.9115 10.4505 53.846 10.4364 53.7796 10.4365H53.7803ZM50.0977 15.4454C49.8427 16.9158 48.6448 17.9019 47.1173 17.9019C46.3499 17.9019 45.7369 17.6626 45.3434 17.2087C44.9528 16.7569 44.8042 16.1153 44.9289 15.4002C45.1666 13.9426 46.3854 12.924 47.889 12.924C48.6398 12.924 49.2492 13.1668 49.6506 13.6249C50.0535 14.0873 50.2129 14.7332 50.0977 15.4454ZM67.8499 10.4365H65.1956C64.9419 10.4365 64.7043 10.5593 64.5608 10.764L60.8992 16.0179L59.347 10.9694C59.2994 10.8154 59.2022 10.6805 59.0697 10.5845C58.9372 10.4885 58.7766 10.4366 58.6115 10.4365H56.0028C55.9296 10.4363 55.8573 10.4533 55.7922 10.4858C55.727 10.5184 55.6707 10.5656 55.6281 10.6236C55.5854 10.6816 55.5576 10.7487 55.5469 10.8192C55.5362 10.8898 55.5429 10.9619 55.5666 11.0294L58.4905 19.3885L55.7412 23.1685C55.6922 23.2355 55.6631 23.3144 55.6571 23.3965C55.6511 23.4785 55.6684 23.5606 55.7072 23.6337C55.746 23.7069 55.8047 23.7681 55.877 23.8108C55.9492 23.8535 56.0321 23.876 56.1166 23.8758H58.768C59.0195 23.8758 59.255 23.7565 59.3985 23.5553L68.2274 11.1402C68.2755 11.0731 68.3038 10.9945 68.3092 10.9128C68.3147 10.8311 68.297 10.7496 68.2581 10.677C68.2193 10.6045 68.1607 10.5437 68.0889 10.5013C68.0171 10.4588 67.9346 10.4364 67.8506 10.4365H67.8499Z" fill="#253B80"/>
<path d="M76.6405 5.46561H71.1223C70.7455 5.46561 70.4252 5.73314 70.3658 6.09596L68.1347 19.8762C68.1242 19.9401 68.128 20.0054 68.146 20.0677C68.164 20.13 68.1957 20.1878 68.2388 20.237C68.2819 20.2862 68.3355 20.3257 68.3959 20.3527C68.4562 20.3798 68.5219 20.3937 68.5883 20.3936H71.4194C71.5472 20.3934 71.6707 20.3488 71.7677 20.2678C71.8646 20.1868 71.9288 20.0747 71.9484 19.9517L72.5818 16.0454C72.6397 15.6818 72.9622 15.4143 73.3383 15.4143H75.0847C78.7187 15.4143 80.8158 13.7018 81.3644 10.3073C81.6115 8.82208 81.3738 7.65526 80.66 6.83785C79.8767 5.94067 78.4861 5.46561 76.6405 5.46561ZM77.2767 10.4986C76.976 12.427 75.4637 12.427 73.9999 12.427H73.1687L73.7535 8.82561C73.7703 8.72036 73.8252 8.62443 73.9082 8.55517C73.9913 8.48591 74.0971 8.44788 74.2064 8.44796H74.5883C75.5832 8.44796 76.5238 8.44796 77.01 9.00067C77.2999 9.33102 77.3868 9.82161 77.2767 10.4986ZM93.1303 10.4364H90.4897C90.3803 10.4362 90.2743 10.4743 90.1912 10.5437C90.1081 10.6132 90.0533 10.7093 90.0368 10.8148L89.9194 11.5348L89.7339 11.2736C89.1622 10.4647 87.8876 10.1943 86.6144 10.1943C83.6955 10.1943 81.2028 12.3487 80.7173 15.3698C80.4658 16.8769 80.8231 18.3183 81.7006 19.3228C82.5071 20.2475 83.6571 20.6322 85.0281 20.6322C87.3803 20.6322 88.6847 19.159 88.6847 19.159L88.5666 19.8741C88.5561 19.9382 88.56 20.0037 88.578 20.0662C88.5961 20.1286 88.6278 20.1865 88.6711 20.2358C88.7144 20.2852 88.7681 20.3248 88.8287 20.3519C88.8892 20.379 88.955 20.393 89.0216 20.3929H91.4006C91.7774 20.3929 92.0984 20.1254 92.1571 19.7618L93.5861 10.9538C93.5963 10.8898 93.5921 10.8243 93.5738 10.762C93.5555 10.6997 93.5235 10.6419 93.4802 10.5927C93.4368 10.5436 93.383 10.5042 93.3225 10.4772C93.2619 10.4502 93.1962 10.4363 93.1296 10.4364H93.1303ZM89.4477 15.4454C89.1941 16.9157 87.9948 17.9018 86.4673 17.9018C85.7013 17.9018 85.0868 17.6626 84.6934 17.2087C84.3028 16.7569 84.1557 16.1153 84.2789 15.4002C84.518 13.9426 85.7347 12.924 87.239 12.924C87.989 12.924 88.5992 13.1668 89.0006 13.6249C89.405 14.0873 89.5644 14.7331 89.4477 15.4454ZM96.2448 5.84396L93.9803 19.8769C93.9699 19.9407 93.9739 20.006 93.9919 20.0682C94.01 20.1304 94.0416 20.1881 94.0848 20.2372C94.1279 20.2863 94.1814 20.3257 94.2417 20.3527C94.302 20.3797 94.3676 20.3937 94.4339 20.3936H96.71C97.0883 20.3936 97.4093 20.1261 97.4673 19.7626L99.7006 5.98302C99.7111 5.9191 99.7072 5.85372 99.6892 5.79139C99.6713 5.72907 99.6396 5.67128 99.5965 5.62203C99.5534 5.57277 99.4998 5.53322 99.4394 5.50609C99.3791 5.47896 99.3134 5.46491 99.247 5.4649H96.6977C96.5883 5.46545 96.4827 5.50388 96.3997 5.57332C96.3167 5.64277 96.2618 5.7387 96.2448 5.84396Z" fill="#179BD7"/>
<path d="M5.87421 23.0711L6.29595 20.4607L5.35682 20.4395H0.869141L3.98726 1.1774C3.99649 1.11849 4.02722 1.06479 4.0738 1.02616C4.12038 0.987522 4.1797 0.966537 4.24088 0.96705H11.8075C14.3191 0.96705 16.0532 1.47599 16.9583 2.48117C17.3822 2.9527 17.6525 3.4454 17.7829 3.98752C17.9206 4.55646 17.9228 5.23693 17.7887 6.06564L17.7793 6.12564V6.65717L18.2032 6.89152C18.5612 7.07576 18.8445 7.28682 19.0626 7.52893C19.4249 7.9327 19.6604 8.44446 19.7597 9.05223C19.8619 9.67693 19.8278 10.4202 19.6604 11.2616C19.467 12.2301 19.1532 13.0729 18.7307 13.7626C18.358 14.3808 17.8567 14.9162 17.259 15.3346C16.6974 15.7228 16.03 16.0172 15.2764 16.2056C14.5452 16.3913 13.7119 16.4852 12.7981 16.4852H12.209C11.7887 16.4852 11.3793 16.6327 11.0583 16.8974C10.7375 17.1649 10.5246 17.5346 10.4575 17.9407L10.4141 18.1758L9.66769 22.7767L9.63436 22.9461C9.62566 22.9991 9.60972 23.0259 9.58726 23.0435C9.56547 23.0613 9.53811 23.0712 9.50972 23.0718H5.87421V23.0711Z" fill="#253B80"/>
<path d="M18.6053 6.18707C18.5828 6.32825 18.5567 6.47154 18.5277 6.61907C17.5299 11.6097 14.1162 13.3341 9.75601 13.3341H7.53572C7.00311 13.3341 6.55383 13.7111 6.4705 14.2235L5.33354 21.245L5.0118 23.2355C4.99903 23.3145 5.00398 23.3952 5.02629 23.4721C5.0486 23.5491 5.08775 23.6204 5.14105 23.6811C5.19435 23.7419 5.26053 23.7907 5.33504 23.8242C5.40955 23.8577 5.49062 23.875 5.57267 23.8751H9.50963C9.9763 23.8751 10.3719 23.5454 10.4459 23.0972L10.4843 22.9024L11.2256 18.3198L11.2734 18.0685C11.3459 17.6188 11.743 17.2885 12.2089 17.2885H12.798C16.6125 17.2885 19.5988 15.78 20.4719 11.4141C20.8364 9.59013 20.6473 8.06754 19.6828 6.99672C19.3771 6.66531 19.012 6.39095 18.6053 6.18707Z" fill="#179BD7"/>
<path d="M17.5615 5.78117C17.243 5.69145 16.9189 5.62143 16.5912 5.57153C15.9439 5.47463 15.2897 5.42813 14.6347 5.43247H8.70356C8.47793 5.43237 8.2597 5.51087 8.08828 5.65378C7.91685 5.79669 7.80353 5.99459 7.76878 6.21176L6.50791 13.9969L6.47168 14.2242C6.5111 13.9766 6.64014 13.7508 6.83548 13.5877C7.03083 13.4246 7.27961 13.3349 7.5369 13.3348H9.75719C14.1173 13.3348 17.5311 11.6096 18.5289 6.61976C18.5586 6.47223 18.584 6.32823 18.6065 6.18776C18.3432 6.0534 18.0688 5.94077 17.7862 5.85106C17.7137 5.82706 17.6383 5.80447 17.5623 5.78259L17.5615 5.78117Z" fill="#222D65"/>
<path d="M7.76849 6.21177C7.80299 5.99461 7.91629 5.7967 8.0878 5.65397C8.25932 5.51124 8.47769 5.43316 8.70327 5.43388H14.6337C15.3366 5.43388 15.9924 5.47835 16.591 5.57294C16.9961 5.63494 17.3956 5.7277 17.7859 5.85035C18.0684 5.9404 18.3427 6.05302 18.6062 6.18706C18.9033 4.34259 18.604 3.08753 17.5801 1.95035C16.4518 0.698118 14.4149 0.162354 11.8083 0.162354H4.24168C3.70907 0.162354 3.25544 0.540001 3.17283 1.05247L0.020661 20.5129C0.00599952 20.6033 0.011624 20.6957 0.0371472 20.7838C0.0626703 20.8719 0.107486 20.9535 0.168506 21.0231C0.229527 21.0926 0.305304 21.1485 0.390617 21.1868C0.475929 21.2251 0.568752 21.2449 0.66269 21.2449H5.3337L6.50762 13.9962L7.76849 6.21247V6.21177Z" fill="#253B80"/>
</svg>
