<svg width="52" height="51" viewBox="0 0 52 51" fill="none" xmlns="http://www.w3.org/2000/svg">
<path d="M13.2721 12.7279C18.575 7.425 21.2265 4.77354 24.4357 4.26525C25.4721 4.1011 26.5279 4.1011 27.5643 4.26525C30.7735 4.77354 33.425 7.425 38.7279 12.7279V12.7279C44.0308 18.0308 46.6823 20.6823 47.1906 23.8915C47.3547 24.9279 47.3547 25.9838 47.1906 27.0202C46.6823 30.2294 44.0308 32.8808 38.7279 38.1838V38.1838C33.425 43.4867 30.7735 46.1382 27.5643 46.6464C26.5279 46.8106 25.4721 46.8106 24.4357 46.6464C21.2265 46.1382 18.575 43.4867 13.2721 38.1838V38.1838C7.96915 32.8808 5.31769 30.2294 4.80941 27.0202C4.64525 25.9838 4.64525 24.9279 4.80941 23.8915C5.31769 20.6823 7.96915 18.0308 13.2721 12.7279V12.7279Z" fill="#8CC183"/>
<path d="M21.56 30.52C21.9813 30.52 22.336 30.472 22.624 30.376C22.9173 30.2747 23.1547 30.1387 23.336 29.968C23.5227 29.7973 23.656 29.5973 23.736 29.368C23.8213 29.1333 23.864 28.8827 23.864 28.616C23.864 28.072 23.6773 27.6453 23.304 27.336C22.936 27.0213 22.352 26.864 21.552 26.864H19.24V30.52H21.56ZM19.24 21.944V25.544H21.112C21.912 25.544 22.5093 25.3893 22.904 25.08C23.2987 24.7707 23.496 24.3253 23.496 23.744C23.496 23.1093 23.3093 22.6507 22.936 22.368C22.568 22.0853 21.9893 21.944 21.2 21.944H19.24ZM21.2 20.48C21.936 20.48 22.5653 20.552 23.088 20.696C23.6107 20.8347 24.04 21.0347 24.376 21.296C24.712 21.5573 24.9573 21.8773 25.112 22.256C25.272 22.6293 25.352 23.0507 25.352 23.52C25.352 23.792 25.3093 24.056 25.224 24.312C25.144 24.5627 25.016 24.8 24.84 25.024C24.6693 25.2427 24.4533 25.44 24.192 25.616C23.9307 25.792 23.6213 25.9387 23.264 26.056C24.896 26.4027 25.712 27.2693 25.712 28.656C25.712 29.1467 25.6187 29.5973 25.432 30.008C25.2507 30.4133 24.984 30.7653 24.632 31.064C24.2853 31.3573 23.856 31.5867 23.344 31.752C22.832 31.9173 22.248 32 21.592 32H17.368V20.48H21.2ZM34.6691 30.696V32H28.3891V30.696H30.7891V23.48C30.7891 23.224 30.7971 22.9627 30.8131 22.696L28.9651 24.256C28.8851 24.32 28.8025 24.3627 28.7171 24.384C28.6371 24.4 28.5598 24.4 28.4851 24.384C28.4158 24.368 28.3518 24.344 28.2931 24.312C28.2398 24.2747 28.1971 24.2347 28.1651 24.192L27.6291 23.44L31.1011 20.456H32.5011V30.696H34.6691Z" fill="white"/>
</svg>
