<svg width="52" height="51" viewBox="0 0 52 51" fill="none" xmlns="http://www.w3.org/2000/svg">
<path d="M13.2721 12.7279C18.575 7.425 21.2265 4.77354 24.4357 4.26525C25.4721 4.1011 26.5279 4.1011 27.5643 4.26525C30.7735 4.77354 33.425 7.425 38.7279 12.7279V12.7279C44.0308 18.0308 46.6823 20.6823 47.1906 23.8915C47.3547 24.9279 47.3547 25.9838 47.1906 27.0202C46.6823 30.2294 44.0308 32.8808 38.7279 38.1838V38.1838C33.425 43.4867 30.7735 46.1382 27.5643 46.6464C26.5279 46.8106 25.4721 46.8106 24.4357 46.6464C21.2265 46.1382 18.575 43.4867 13.2721 38.1838V38.1838C7.96915 32.8808 5.31769 30.2294 4.80941 27.0202C4.64525 25.9838 4.64525 24.9279 4.80941 23.8915C5.31769 20.6823 7.96915 18.0308 13.2721 12.7279V12.7279Z" fill="#62BEBE"/>
<path d="M21.56 30.52C21.9813 30.52 22.336 30.472 22.624 30.376C22.9173 30.2747 23.1547 30.1387 23.336 29.968C23.5227 29.7973 23.656 29.5973 23.736 29.368C23.8213 29.1333 23.864 28.8827 23.864 28.616C23.864 28.072 23.6773 27.6453 23.304 27.336C22.936 27.0213 22.352 26.864 21.552 26.864H19.24V30.52H21.56ZM19.24 21.944V25.544H21.112C21.912 25.544 22.5093 25.3893 22.904 25.08C23.2987 24.7707 23.496 24.3253 23.496 23.744C23.496 23.1093 23.3093 22.6507 22.936 22.368C22.568 22.0853 21.9893 21.944 21.2 21.944H19.24ZM21.2 20.48C21.936 20.48 22.5653 20.552 23.088 20.696C23.6107 20.8347 24.04 21.0347 24.376 21.296C24.712 21.5573 24.9573 21.8773 25.112 22.256C25.272 22.6293 25.352 23.0507 25.352 23.52C25.352 23.792 25.3093 24.056 25.224 24.312C25.144 24.5627 25.016 24.8 24.84 25.024C24.6693 25.2427 24.4533 25.44 24.192 25.616C23.9307 25.792 23.6213 25.9387 23.264 26.056C24.896 26.4027 25.712 27.2693 25.712 28.656C25.712 29.1467 25.6187 29.5973 25.432 30.008C25.2507 30.4133 24.984 30.7653 24.632 31.064C24.2853 31.3573 23.856 31.5867 23.344 31.752C22.832 31.9173 22.248 32 21.592 32H17.368V20.48H21.2ZM29.5331 24.736C29.8105 24.6773 30.0745 24.6347 30.3251 24.608C30.5811 24.5813 30.8265 24.568 31.0611 24.568C31.6638 24.568 32.1945 24.6587 32.6531 24.84C33.1171 25.016 33.5038 25.2613 33.8131 25.576C34.1278 25.8907 34.3625 26.2613 34.5171 26.688C34.6771 27.1093 34.7571 27.568 34.7571 28.064C34.7571 28.6773 34.6505 29.2347 34.4371 29.736C34.2238 30.2373 33.9278 30.6667 33.5491 31.024C33.1705 31.376 32.7225 31.648 32.2051 31.84C31.6931 32.032 31.1385 32.128 30.5411 32.128C30.1891 32.128 29.8531 32.0933 29.5331 32.024C29.2185 31.9547 28.9225 31.8613 28.6451 31.744C28.3678 31.6213 28.1118 31.4827 27.8771 31.328C27.6425 31.168 27.4318 31.0027 27.2451 30.832L27.7731 30.096C27.8851 29.936 28.0345 29.856 28.2211 29.856C28.3385 29.856 28.4665 29.8987 28.6051 29.984C28.7438 30.0693 28.9038 30.1627 29.0851 30.264C29.2718 30.36 29.4905 30.4507 29.7411 30.536C29.9918 30.6213 30.2905 30.664 30.6371 30.664C31.0158 30.664 31.3545 30.6027 31.6531 30.48C31.9518 30.3573 32.2025 30.1867 32.4051 29.968C32.6131 29.744 32.7705 29.4773 32.8771 29.168C32.9838 28.8587 33.0371 28.52 33.0371 28.152C33.0371 27.816 32.9865 27.5147 32.8851 27.248C32.7891 26.9813 32.6425 26.7547 32.4451 26.568C32.2531 26.3813 32.0105 26.24 31.7171 26.144C31.4238 26.0427 31.0851 25.992 30.7011 25.992C30.4185 25.992 30.1278 26.016 29.8291 26.064C29.5358 26.112 29.2371 26.1867 28.9331 26.288L27.8611 25.984L28.8051 20.48H34.3811V21.224C34.3811 21.4693 34.3038 21.6693 34.1491 21.824C33.9945 21.9787 33.7358 22.056 33.3731 22.056H29.9971L29.5331 24.736Z" fill="white"/>
</svg>
