<svg width="52" height="51" viewBox="0 0 52 51" fill="none" xmlns="http://www.w3.org/2000/svg">
<path d="M13.2721 12.7279C18.575 7.425 21.2265 4.77354 24.4357 4.26525C25.4721 4.1011 26.5279 4.1011 27.5643 4.26525C30.7735 4.77354 33.425 7.425 38.7279 12.7279V12.7279C44.0308 18.0308 46.6823 20.6823 47.1906 23.8915C47.3547 24.9279 47.3547 25.9838 47.1906 27.0202C46.6823 30.2294 44.0308 32.8808 38.7279 38.1838V38.1838C33.425 43.4867 30.7735 46.1382 27.5643 46.6464C26.5279 46.8106 25.4721 46.8106 24.4357 46.6464C21.2265 46.1382 18.575 43.4867 13.2721 38.1838V38.1838C7.96915 32.8808 5.31769 30.2294 4.80941 27.0202C4.64525 25.9838 4.64525 24.9279 4.80941 23.8915C5.31769 20.6823 7.96915 18.0308 13.2721 12.7279V12.7279Z" fill="#DE927A"/>
<path d="M21.56 30.52C21.9813 30.52 22.336 30.472 22.624 30.376C22.9173 30.2747 23.1547 30.1387 23.336 29.968C23.5227 29.7973 23.656 29.5973 23.736 29.368C23.8213 29.1333 23.864 28.8827 23.864 28.616C23.864 28.072 23.6773 27.6453 23.304 27.336C22.936 27.0213 22.352 26.864 21.552 26.864H19.24V30.52H21.56ZM19.24 21.944V25.544H21.112C21.912 25.544 22.5093 25.3893 22.904 25.08C23.2987 24.7707 23.496 24.3253 23.496 23.744C23.496 23.1093 23.3093 22.6507 22.936 22.368C22.568 22.0853 21.9893 21.944 21.2 21.944H19.24ZM21.2 20.48C21.936 20.48 22.5653 20.552 23.088 20.696C23.6107 20.8347 24.04 21.0347 24.376 21.296C24.712 21.5573 24.9573 21.8773 25.112 22.256C25.272 22.6293 25.352 23.0507 25.352 23.52C25.352 23.792 25.3093 24.056 25.224 24.312C25.144 24.5627 25.016 24.8 24.84 25.024C24.6693 25.2427 24.4533 25.44 24.192 25.616C23.9307 25.792 23.6213 25.9387 23.264 26.056C24.896 26.4027 25.712 27.2693 25.712 28.656C25.712 29.1467 25.6187 29.5973 25.432 30.008C25.2507 30.4133 24.984 30.7653 24.632 31.064C24.2853 31.3573 23.856 31.5867 23.344 31.752C22.832 31.9173 22.248 32 21.592 32H17.368V20.48H21.2ZM31.0771 30.704C31.4238 30.704 31.7411 30.648 32.0291 30.536C32.3171 30.4187 32.5625 30.2587 32.7651 30.056C32.9731 29.8533 33.1331 29.6133 33.2451 29.336C33.3571 29.0587 33.4131 28.7573 33.4131 28.432C33.4131 28.08 33.3571 27.7653 33.2451 27.488C33.1385 27.2053 32.9838 26.968 32.7811 26.776C32.5838 26.584 32.3438 26.4373 32.0611 26.336C31.7838 26.2293 31.4771 26.176 31.1411 26.176C30.7945 26.176 30.4798 26.2347 30.1971 26.352C29.9198 26.4693 29.6825 26.6293 29.4851 26.832C29.2878 27.0347 29.1358 27.272 29.0291 27.544C28.9225 27.816 28.8691 28.104 28.8691 28.408C28.8691 28.7493 28.9171 29.0613 29.0131 29.344C29.1091 29.6267 29.2505 29.8693 29.4371 30.072C29.6238 30.2693 29.8531 30.424 30.1251 30.536C30.4025 30.648 30.7198 30.704 31.0771 30.704ZM30.4451 24.72C30.3598 24.8267 30.2771 24.928 30.1971 25.024C30.1225 25.12 30.0478 25.216 29.9731 25.312C30.2185 25.1733 30.4878 25.064 30.7811 24.984C31.0745 24.904 31.3891 24.864 31.7251 24.864C32.1731 24.864 32.6025 24.9387 33.0131 25.088C33.4238 25.232 33.7838 25.4507 34.0931 25.744C34.4078 26.032 34.6585 26.392 34.8451 26.824C35.0318 27.2507 35.1251 27.744 35.1251 28.304C35.1251 28.8373 35.0265 29.336 34.8291 29.8C34.6371 30.264 34.3651 30.6693 34.0131 31.016C33.6611 31.3573 33.2371 31.6293 32.7411 31.832C32.2505 32.0293 31.7065 32.128 31.1091 32.128C30.5118 32.128 29.9731 32.032 29.4931 31.84C29.0131 31.648 28.6025 31.3787 28.2611 31.032C27.9251 30.68 27.6665 30.2587 27.4851 29.768C27.3038 29.2773 27.2131 28.7307 27.2131 28.128C27.2131 27.6053 27.3251 27.0587 27.5491 26.488C27.7731 25.9173 28.1198 25.3173 28.5891 24.688L31.4211 20.888C31.5065 20.776 31.6291 20.68 31.7891 20.6C31.9545 20.52 32.1385 20.48 32.3411 20.48H33.8611L30.4451 24.72Z" fill="white"/>
</svg>
