<svg width="52" height="51" viewBox="0 0 52 51" fill="none" xmlns="http://www.w3.org/2000/svg">
<path d="M13.2721 12.7279C18.575 7.425 21.2265 4.77354 24.4357 4.26525C25.4721 4.1011 26.5279 4.1011 27.5643 4.26525C30.7735 4.77354 33.425 7.425 38.7279 12.7279V12.7279C44.0308 18.0308 46.6823 20.6823 47.1906 23.8915C47.3547 24.9279 47.3547 25.9838 47.1906 27.0202C46.6823 30.2294 44.0308 32.8808 38.7279 38.1838V38.1838C33.425 43.4867 30.7735 46.1382 27.5643 46.6464C26.5279 46.8106 25.4721 46.8106 24.4357 46.6464C21.2265 46.1382 18.575 43.4867 13.2721 38.1838V38.1838C7.96915 32.8808 5.31769 30.2294 4.80941 27.0202C4.64525 25.9838 4.64525 24.9279 4.80941 23.8915C5.31769 20.6823 7.96915 18.0308 13.2721 12.7279V12.7279Z" fill="#EEB27B"/>
<path d="M27.464 27.68L25.88 23.472C25.752 23.1467 25.6213 22.7333 25.488 22.232C25.4293 22.4827 25.3653 22.7147 25.296 22.928C25.2267 23.136 25.1627 23.32 25.104 23.48L23.52 27.68H27.464ZM31.008 32H29.56C29.3947 32 29.2613 31.96 29.16 31.88C29.0587 31.7947 28.9813 31.6907 28.928 31.568L27.968 29.024H23.008L22.048 31.568C22.0053 31.6747 21.9307 31.7733 21.824 31.864C21.7173 31.9547 21.584 32 21.424 32H19.976L24.544 20.48H26.44L31.008 32Z" fill="white"/>
</svg>
