<svg width="52" height="51" viewBox="0 0 52 51" fill="none" xmlns="http://www.w3.org/2000/svg">
<path d="M13.2721 12.7279C18.575 7.425 21.2265 4.77354 24.4357 4.26525C25.4721 4.1011 26.5279 4.1011 27.5643 4.26525C30.7735 4.77354 33.425 7.425 38.7279 12.7279V12.7279C44.0308 18.0308 46.6823 20.6823 47.1906 23.8915C47.3547 24.9279 47.3547 25.9838 47.1906 27.0202C46.6823 30.2294 44.0308 32.8808 38.7279 38.1838V38.1838C33.425 43.4867 30.7735 46.1382 27.5643 46.6464C26.5279 46.8106 25.4721 46.8106 24.4357 46.6464C21.2265 46.1382 18.575 43.4867 13.2721 38.1838V38.1838C7.96915 32.8808 5.31769 30.2294 4.80941 27.0202C4.64525 25.9838 4.64525 24.9279 4.80941 23.8915C5.31769 20.6823 7.96915 18.0308 13.2721 12.7279V12.7279Z" fill="#8CC183"/>
<path d="M24.24 25.408H24.776C24.9787 25.408 25.144 25.3813 25.272 25.328C25.4 25.2693 25.5147 25.1787 25.616 25.056L29.104 20.896C29.2267 20.7413 29.352 20.6347 29.48 20.576C29.6133 20.512 29.7787 20.48 29.976 20.48H31.576L27.456 25.344C27.344 25.4827 27.2347 25.6 27.128 25.696C27.0267 25.7867 26.9147 25.8613 26.792 25.92C26.952 25.9787 27.096 26.0613 27.224 26.168C27.352 26.2693 27.4773 26.4053 27.6 26.576L31.872 32H30.24C30.1227 32 30.0213 31.992 29.936 31.976C29.856 31.96 29.784 31.936 29.72 31.904C29.6613 31.872 29.608 31.832 29.56 31.784C29.5173 31.736 29.4773 31.6827 29.44 31.624L25.84 27.224C25.7867 27.1547 25.7333 27.096 25.68 27.048C25.6267 27 25.5627 26.96 25.488 26.928C25.4187 26.896 25.3387 26.8747 25.248 26.864C25.1573 26.848 25.0507 26.84 24.928 26.84H24.24V32H22.368V20.48H24.24V25.408Z" fill="white"/>
</svg>
