<svg width="52" height="51" viewBox="0 0 52 51" fill="none" xmlns="http://www.w3.org/2000/svg">
<path d="M13.2721 12.7279C18.575 7.425 21.2265 4.77354 24.4357 4.26525C25.4721 4.1011 26.5279 4.1011 27.5643 4.26525C30.7735 4.77354 33.425 7.425 38.7279 12.7279V12.7279C44.0308 18.0308 46.6823 20.6823 47.1906 23.8915C47.3547 24.9279 47.3547 25.9838 47.1906 27.0202C46.6823 30.2294 44.0308 32.8808 38.7279 38.1838V38.1838C33.425 43.4867 30.7735 46.1382 27.5643 46.6464C26.5279 46.8106 25.4721 46.8106 24.4357 46.6464C21.2265 46.1382 18.575 43.4867 13.2721 38.1838V38.1838C7.96915 32.8808 5.31769 30.2294 4.80941 27.0202C4.64525 25.9838 4.64525 24.9279 4.80941 23.8915C5.31769 20.6823 7.96915 18.0308 13.2721 12.7279V12.7279Z" fill="#EEB27B"/>
<path d="M21.56 30.52C21.9813 30.52 22.336 30.472 22.624 30.376C22.9173 30.2747 23.1547 30.1387 23.336 29.968C23.5227 29.7973 23.656 29.5973 23.736 29.368C23.8213 29.1333 23.864 28.8827 23.864 28.616C23.864 28.072 23.6773 27.6453 23.304 27.336C22.936 27.0213 22.352 26.864 21.552 26.864H19.24V30.52H21.56ZM19.24 21.944V25.544H21.112C21.912 25.544 22.5093 25.3893 22.904 25.08C23.2987 24.7707 23.496 24.3253 23.496 23.744C23.496 23.1093 23.3093 22.6507 22.936 22.368C22.568 22.0853 21.9893 21.944 21.2 21.944H19.24ZM21.2 20.48C21.936 20.48 22.5653 20.552 23.088 20.696C23.6107 20.8347 24.04 21.0347 24.376 21.296C24.712 21.5573 24.9573 21.8773 25.112 22.256C25.272 22.6293 25.352 23.0507 25.352 23.52C25.352 23.792 25.3093 24.056 25.224 24.312C25.144 24.5627 25.016 24.8 24.84 25.024C24.6693 25.2427 24.4533 25.44 24.192 25.616C23.9307 25.792 23.6213 25.9387 23.264 26.056C24.896 26.4027 25.712 27.2693 25.712 28.656C25.712 29.1467 25.6187 29.5973 25.432 30.008C25.2507 30.4133 24.984 30.7653 24.632 31.064C24.2853 31.3573 23.856 31.5867 23.344 31.752C22.832 31.9173 22.248 32 21.592 32H17.368V20.48H21.2ZM27.3971 23.648C27.4771 23.104 27.6265 22.6267 27.8451 22.216C28.0691 21.8053 28.3491 21.464 28.6851 21.192C29.0211 20.9147 29.4051 20.7067 29.8371 20.568C30.2745 20.424 30.7465 20.352 31.2531 20.352C31.7651 20.352 32.2291 20.4267 32.6451 20.576C33.0665 20.72 33.4265 20.9227 33.7251 21.184C34.0291 21.4453 34.2611 21.7573 34.4211 22.12C34.5865 22.4827 34.6691 22.88 34.6691 23.312C34.6691 23.68 34.6238 24.0053 34.5331 24.288C34.4478 24.5653 34.3225 24.8107 34.1571 25.024C33.9971 25.2373 33.7998 25.416 33.5651 25.56C33.3305 25.704 33.0665 25.824 32.7731 25.92C33.4878 26.128 34.0238 26.4613 34.3811 26.92C34.7385 27.3733 34.9171 27.944 34.9171 28.632C34.9171 29.1867 34.8131 29.68 34.6051 30.112C34.3971 30.544 34.1145 30.9093 33.7571 31.208C33.4051 31.5067 32.9918 31.736 32.5171 31.896C32.0478 32.0507 31.5491 32.128 31.0211 32.128C30.4291 32.128 29.9171 32.0587 29.4851 31.92C29.0531 31.776 28.6798 31.5733 28.3651 31.312C28.0558 31.0453 27.7971 30.7253 27.5891 30.352C27.3811 29.9787 27.2051 29.56 27.0611 29.096L27.8051 28.784C28.0025 28.6987 28.1891 28.6747 28.3651 28.712C28.5465 28.7493 28.6771 28.848 28.7571 29.008C28.8425 29.1787 28.9385 29.3627 29.0451 29.56C29.1518 29.752 29.2878 29.9307 29.4531 30.096C29.6238 30.256 29.8318 30.392 30.0771 30.504C30.3278 30.6107 30.6345 30.664 30.9971 30.664C31.3651 30.664 31.6851 30.6053 31.9571 30.488C32.2345 30.3653 32.4638 30.2107 32.6451 30.024C32.8318 29.832 32.9705 29.6187 33.0611 29.384C33.1518 29.1493 33.1971 28.9173 33.1971 28.688C33.1971 28.4 33.1625 28.136 33.0931 27.896C33.0238 27.6507 32.8878 27.4427 32.6851 27.272C32.4878 27.1013 32.2051 26.968 31.8371 26.872C31.4745 26.7707 30.9971 26.72 30.4051 26.72V25.48C30.8905 25.4747 31.2985 25.4267 31.6291 25.336C31.9651 25.24 32.2318 25.112 32.4291 24.952C32.6318 24.7867 32.7758 24.5893 32.8611 24.36C32.9518 24.1307 32.9971 23.88 32.9971 23.608C32.9971 23.3147 32.9518 23.056 32.8611 22.832C32.7705 22.608 32.6425 22.4213 32.4771 22.272C32.3171 22.1173 32.1251 22.0027 31.9011 21.928C31.6771 21.8533 31.4291 21.816 31.1571 21.816C30.8958 21.816 30.6531 21.8533 30.4291 21.928C30.2105 22.0027 30.0131 22.1067 29.8371 22.24C29.6665 22.3733 29.5225 22.5333 29.4051 22.72C29.2878 22.9013 29.2025 23.1013 29.1491 23.32C29.0745 23.5387 28.9731 23.6853 28.8451 23.76C28.7225 23.8347 28.5411 23.8507 28.3011 23.808L27.3971 23.648Z" fill="white"/>
</svg>
