<svg width="52" height="51" viewBox="0 0 52 51" fill="none" xmlns="http://www.w3.org/2000/svg">
<path d="M13.2721 12.7279C18.575 7.425 21.2265 4.77354 24.4357 4.26525C25.4721 4.1011 26.5279 4.1011 27.5643 4.26525C30.7735 4.77354 33.425 7.425 38.7279 12.7279V12.7279C44.0308 18.0308 46.6823 20.6823 47.1906 23.8915C47.3547 24.9279 47.3547 25.9838 47.1906 27.0202C46.6823 30.2294 44.0308 32.8808 38.7279 38.1838V38.1838C33.425 43.4867 30.7735 46.1382 27.5643 46.6464C26.5279 46.8106 25.4721 46.8106 24.4357 46.6464C21.2265 46.1382 18.575 43.4867 13.2721 38.1838V38.1838C7.96915 32.8808 5.31769 30.2294 4.80941 27.0202C4.64525 25.9838 4.64525 24.9279 4.80941 23.8915C5.31769 20.6823 7.96915 18.0308 13.2721 12.7279V12.7279Z" fill="#62BEBE"/>
<path d="M21.56 30.52C21.9813 30.52 22.336 30.472 22.624 30.376C22.9173 30.2747 23.1547 30.1387 23.336 29.968C23.5227 29.7973 23.656 29.5973 23.736 29.368C23.8213 29.1333 23.864 28.8827 23.864 28.616C23.864 28.072 23.6773 27.6453 23.304 27.336C22.936 27.0213 22.352 26.864 21.552 26.864H19.24V30.52H21.56ZM19.24 21.944V25.544H21.112C21.912 25.544 22.5093 25.3893 22.904 25.08C23.2987 24.7707 23.496 24.3253 23.496 23.744C23.496 23.1093 23.3093 22.6507 22.936 22.368C22.568 22.0853 21.9893 21.944 21.2 21.944H19.24ZM21.2 20.48C21.936 20.48 22.5653 20.552 23.088 20.696C23.6107 20.8347 24.04 21.0347 24.376 21.296C24.712 21.5573 24.9573 21.8773 25.112 22.256C25.272 22.6293 25.352 23.0507 25.352 23.52C25.352 23.792 25.3093 24.056 25.224 24.312C25.144 24.5627 25.016 24.8 24.84 25.024C24.6693 25.2427 24.4533 25.44 24.192 25.616C23.9307 25.792 23.6213 25.9387 23.264 26.056C24.896 26.4027 25.712 27.2693 25.712 28.656C25.712 29.1467 25.6187 29.5973 25.432 30.008C25.2507 30.4133 24.984 30.7653 24.632 31.064C24.2853 31.3573 23.856 31.5867 23.344 31.752C22.832 31.9173 22.248 32 21.592 32H17.368V20.48H21.2ZM34.3251 30.376C34.5118 30.376 34.6585 30.432 34.7651 30.544C34.8718 30.6507 34.9251 30.7893 34.9251 30.96V32H27.1331V31.416C27.1331 31.2987 27.1571 31.176 27.2051 31.048C27.2531 30.92 27.3305 30.8027 27.4371 30.696L31.0211 27.104C31.3251 26.8 31.5945 26.5093 31.8291 26.232C32.0691 25.9547 32.2718 25.6773 32.4371 25.4C32.6078 25.1227 32.7358 24.8427 32.8211 24.56C32.9118 24.272 32.9571 23.9707 32.9571 23.656C32.9571 23.352 32.9091 23.0853 32.8131 22.856C32.7225 22.6213 32.5945 22.4293 32.4291 22.28C32.2691 22.1253 32.0745 22.0107 31.8451 21.936C31.6211 21.856 31.3731 21.816 31.1011 21.816C30.8398 21.816 30.5971 21.8533 30.3731 21.928C30.1545 22.0027 29.9571 22.1067 29.7811 22.24C29.6105 22.3733 29.4665 22.5333 29.3491 22.72C29.2371 22.9013 29.1545 23.1013 29.1011 23.32C29.0211 23.5387 28.9171 23.6853 28.7891 23.76C28.6665 23.8347 28.4851 23.8507 28.2451 23.808L27.3411 23.648C27.4211 23.104 27.5705 22.6267 27.7891 22.216C28.0131 21.8053 28.2931 21.464 28.6291 21.192C28.9651 20.9147 29.3491 20.7067 29.7811 20.568C30.2185 20.424 30.6905 20.352 31.1971 20.352C31.7091 20.352 32.1785 20.4293 32.6051 20.584C33.0371 20.7333 33.4078 20.9493 33.7171 21.232C34.0318 21.5093 34.2771 21.848 34.4531 22.248C34.6291 22.648 34.7171 23.0987 34.7171 23.6C34.7171 24.0267 34.6531 24.4213 34.5251 24.784C34.4025 25.1467 34.2345 25.4933 34.0211 25.824C33.8078 26.1547 33.5571 26.4773 33.2691 26.792C32.9865 27.1013 32.6878 27.416 32.3731 27.736L29.5891 30.584C29.8185 30.52 30.0478 30.4693 30.2771 30.432C30.5118 30.3947 30.7331 30.376 30.9411 30.376H34.3251Z" fill="white"/>
</svg>
