<svg width="52" height="51" viewBox="0 0 52 51" fill="none" xmlns="http://www.w3.org/2000/svg">
<path d="M13.2721 12.7279C18.575 7.425 21.2265 4.77354 24.4357 4.26525C25.4721 4.1011 26.5279 4.1011 27.5643 4.26525C30.7735 4.77354 33.425 7.425 38.7279 12.7279V12.7279C44.0308 18.0308 46.6823 20.6823 47.1906 23.8915C47.3547 24.9279 47.3547 25.9838 47.1906 27.0202C46.6823 30.2294 44.0308 32.8808 38.7279 38.1838V38.1838C33.425 43.4867 30.7735 46.1382 27.5643 46.6464C26.5279 46.8106 25.4721 46.8106 24.4357 46.6464C21.2265 46.1382 18.575 43.4867 13.2721 38.1838V38.1838C7.96915 32.8808 5.31769 30.2294 4.80941 27.0202C4.64525 25.9838 4.64525 24.9279 4.80941 23.8915C5.31769 20.6823 7.96915 18.0308 13.2721 12.7279V12.7279Z" fill="#DE927A"/>
<path d="M17.56 30.52C17.9813 30.52 18.336 30.472 18.624 30.376C18.9173 30.2747 19.1547 30.1387 19.336 29.968C19.5227 29.7973 19.656 29.5973 19.736 29.368C19.8213 29.1333 19.864 28.8827 19.864 28.616C19.864 28.072 19.6773 27.6453 19.304 27.336C18.936 27.0213 18.352 26.864 17.552 26.864H15.24V30.52H17.56ZM15.24 21.944V25.544H17.112C17.912 25.544 18.5093 25.3893 18.904 25.08C19.2987 24.7707 19.496 24.3253 19.496 23.744C19.496 23.1093 19.3093 22.6507 18.936 22.368C18.568 22.0853 17.9893 21.944 17.2 21.944H15.24ZM17.2 20.48C17.936 20.48 18.5653 20.552 19.088 20.696C19.6107 20.8347 20.04 21.0347 20.376 21.296C20.712 21.5573 20.9573 21.8773 21.112 22.256C21.272 22.6293 21.352 23.0507 21.352 23.52C21.352 23.792 21.3093 24.056 21.224 24.312C21.144 24.5627 21.016 24.8 20.84 25.024C20.6693 25.2427 20.4533 25.44 20.192 25.616C19.9307 25.792 19.6213 25.9387 19.264 26.056C20.896 26.4027 21.712 27.2693 21.712 28.656C21.712 29.1467 21.6187 29.5973 21.432 30.008C21.2507 30.4133 20.984 30.7653 20.632 31.064C20.2853 31.3573 19.856 31.5867 19.344 31.752C18.832 31.9173 18.248 32 17.592 32H13.368V20.48H17.2ZM30.6691 30.696V32H24.3891V30.696H26.7891V23.48C26.7891 23.224 26.7971 22.9627 26.8131 22.696L24.9651 24.256C24.8851 24.32 24.8025 24.3627 24.7171 24.384C24.6371 24.4 24.5598 24.4 24.4851 24.384C24.4158 24.368 24.3518 24.344 24.2931 24.312C24.2398 24.2747 24.1971 24.2347 24.1651 24.192L23.6291 23.44L27.1011 20.456H28.5011V30.696H30.6691ZM39.6064 30.376C39.793 30.376 39.9397 30.432 40.0464 30.544C40.153 30.6507 40.2064 30.7893 40.2064 30.96V32H32.4144V31.416C32.4144 31.2987 32.4384 31.176 32.4864 31.048C32.5344 30.92 32.6117 30.8027 32.7184 30.696L36.3024 27.104C36.6064 26.8 36.8757 26.5093 37.1104 26.232C37.3504 25.9547 37.553 25.6773 37.7184 25.4C37.889 25.1227 38.017 24.8427 38.1024 24.56C38.193 24.272 38.2384 23.9707 38.2384 23.656C38.2384 23.352 38.1904 23.0853 38.0944 22.856C38.0037 22.6213 37.8757 22.4293 37.7104 22.28C37.5504 22.1253 37.3557 22.0107 37.1264 21.936C36.9024 21.856 36.6544 21.816 36.3824 21.816C36.121 21.816 35.8784 21.8533 35.6544 21.928C35.4357 22.0027 35.2384 22.1067 35.0624 22.24C34.8917 22.3733 34.7477 22.5333 34.6304 22.72C34.5184 22.9013 34.4357 23.1013 34.3824 23.32C34.3024 23.5387 34.1984 23.6853 34.0704 23.76C33.9477 23.8347 33.7664 23.8507 33.5264 23.808L32.6224 23.648C32.7024 23.104 32.8517 22.6267 33.0704 22.216C33.2944 21.8053 33.5744 21.464 33.9104 21.192C34.2464 20.9147 34.6304 20.7067 35.0624 20.568C35.4997 20.424 35.9717 20.352 36.4784 20.352C36.9904 20.352 37.4597 20.4293 37.8864 20.584C38.3184 20.7333 38.689 20.9493 38.9984 21.232C39.313 21.5093 39.5584 21.848 39.7344 22.248C39.9104 22.648 39.9984 23.0987 39.9984 23.6C39.9984 24.0267 39.9344 24.4213 39.8064 24.784C39.6837 25.1467 39.5157 25.4933 39.3024 25.824C39.089 26.1547 38.8384 26.4773 38.5504 26.792C38.2677 27.1013 37.969 27.416 37.6544 27.736L34.8704 30.584C35.0997 30.52 35.329 30.4693 35.5584 30.432C35.793 30.3947 36.0144 30.376 36.2224 30.376H39.6064Z" fill="white"/>
</svg>
