<svg width="52" height="51" viewBox="0 0 52 51" fill="none" xmlns="http://www.w3.org/2000/svg">
<path d="M13.2721 12.7279C18.575 7.425 21.2265 4.77354 24.4357 4.26525C25.4721 4.1011 26.5279 4.1011 27.5643 4.26525C30.7735 4.77354 33.425 7.425 38.7279 12.7279V12.7279C44.0308 18.0308 46.6823 20.6823 47.1906 23.8915C47.3547 24.9279 47.3547 25.9838 47.1906 27.0202C46.6823 30.2294 44.0308 32.8808 38.7279 38.1838V38.1838C33.425 43.4867 30.7735 46.1382 27.5643 46.6464C26.5279 46.8106 25.4721 46.8106 24.4357 46.6464C21.2265 46.1382 18.575 43.4867 13.2721 38.1838V38.1838C7.96915 32.8808 5.31769 30.2294 4.80941 27.0202C4.64525 25.9838 4.64525 24.9279 4.80941 23.8915C5.31769 20.6823 7.96915 18.0308 13.2721 12.7279V12.7279Z" fill="#EADC5C"/>
<path d="M30.368 29.432C30.4693 29.432 30.5573 29.472 30.632 29.552L31.376 30.36C30.9067 30.9253 30.3307 31.3627 29.648 31.672C28.9653 31.976 28.1493 32.128 27.2 32.128C26.3573 32.128 25.5947 31.984 24.912 31.696C24.2347 31.4027 23.656 30.9973 23.176 30.48C22.696 29.9573 22.3253 29.336 22.064 28.616C21.808 27.896 21.68 27.104 21.68 26.24C21.68 25.376 21.816 24.584 22.088 23.864C22.3653 23.1387 22.752 22.5173 23.248 22C23.7493 21.4773 24.3467 21.072 25.04 20.784C25.7387 20.496 26.5067 20.352 27.344 20.352C28.176 20.352 28.9093 20.488 29.544 20.76C30.184 21.0267 30.7387 21.384 31.208 21.832L30.592 22.704C30.5493 22.7627 30.4987 22.8133 30.44 22.856C30.3813 22.8987 30.3013 22.92 30.2 22.92C30.0933 22.92 29.9707 22.872 29.832 22.776C29.6987 22.6747 29.5253 22.5653 29.312 22.448C29.104 22.3253 28.84 22.216 28.52 22.12C28.2053 22.0187 27.8107 21.968 27.336 21.968C26.7867 21.968 26.2827 22.064 25.824 22.256C25.3653 22.448 24.9707 22.728 24.64 23.096C24.3093 23.464 24.0507 23.912 23.864 24.44C23.6827 24.968 23.592 25.568 23.592 26.24C23.592 26.9173 23.688 27.5227 23.88 28.056C24.072 28.584 24.336 29.032 24.672 29.4C25.008 29.7627 25.4027 30.04 25.856 30.232C26.3093 30.424 26.7973 30.52 27.32 30.52C27.64 30.52 27.9253 30.504 28.176 30.472C28.432 30.4347 28.6667 30.3787 28.88 30.304C29.0933 30.224 29.2933 30.1253 29.48 30.008C29.672 29.8907 29.8613 29.7467 30.048 29.576C30.1547 29.48 30.2613 29.432 30.368 29.432Z" fill="white"/>
</svg>
