<svg width="50" height="22" viewBox="0 0 50 22" fill="none" xmlns="http://www.w3.org/2000/svg">
<path d="M9.13302 3.38281C8.54708 4.07813 7.60958 4.625 6.67208 4.54687C6.5549 3.60937 7.01583 2.60938 7.5549 2C8.14083 1.28906 9.16427 0.78125 10.0002 0.742188C10.094 1.71094 9.71115 2.67188 9.13302 3.38281ZM9.98458 4.72656C8.62521 4.64844 7.46115 5.5 6.82052 5.5C6.16427 5.5 5.17989 4.76562 4.10177 4.78906C2.70333 4.8125 1.40646 5.60156 0.695518 6.85938C-0.773232 9.38281 0.312706 13.1094 1.73458 15.1641C2.42989 16.1797 3.25802 17.2969 4.35177 17.2578C5.39083 17.2188 5.79708 16.5859 7.04708 16.5859C8.3049 16.5859 8.67208 17.2578 9.76583 17.2422C10.8986 17.2188 11.6096 16.2266 12.3049 15.2109C13.094 14.0547 13.4221 12.9375 13.4377 12.875C13.4143 12.8516 11.2502 12.0234 11.2268 9.52344C11.2033 7.42969 12.9377 6.4375 13.0158 6.375C12.0393 4.92188 10.5158 4.76562 9.98458 4.72656ZM17.8283 1.89844V17.125H20.1955V11.9219H23.469C26.4612 11.9219 28.5549 9.86719 28.5549 6.89844C28.5549 3.92969 26.4924 1.89844 23.5471 1.89844H17.8283ZM20.1955 3.89063H22.9221C24.9768 3.89063 26.1487 4.98438 26.1487 6.90625C26.1487 8.82813 24.9768 9.9375 22.9143 9.9375H20.1955V3.89063ZM32.8674 17.2422C34.3518 17.2422 35.7268 16.4922 36.3518 15.2969H36.3987V17.125H38.5862V9.54688C38.5862 7.35156 36.8283 5.92969 34.1252 5.92969C31.6174 5.92969 29.758 7.36719 29.6877 9.33594H31.8205C32.0002 8.39844 32.8674 7.78125 34.0549 7.78125C35.5002 7.78125 36.3127 8.45313 36.3127 9.69531V10.5391L33.3596 10.7188C30.6174 10.8828 29.133 12.0078 29.133 13.9609C29.1408 15.9297 30.6721 17.2422 32.8674 17.2422ZM33.508 15.4375C32.2502 15.4375 31.4455 14.8281 31.4455 13.9063C31.4455 12.9453 32.219 12.3906 33.6955 12.3047L36.3205 12.1406V13C36.3205 14.4219 35.1096 15.4375 33.508 15.4375ZM41.5158 21.2656C43.8205 21.2656 44.9065 20.3828 45.8518 17.7188L50.0002 6.07812H47.594L44.8127 15.0703H44.7658L41.9846 6.07812H39.5158L43.5158 17.1641L43.2971 17.8359C42.9377 18.9766 42.3518 19.4219 41.3049 19.4219C41.1174 19.4219 40.758 19.3984 40.6096 19.3828V21.2109C40.7502 21.2422 41.3362 21.2656 41.5158 21.2656Z" fill="black"/>
</svg>
