<svg width="41" height="26" viewBox="0 0 41 26" fill="none" xmlns="http://www.w3.org/2000/svg">
<path d="M26.0173 3.27356H14.9424V22.6878H26.0173V3.27356Z" fill="#FF5F00"/>
<path d="M15.6454 12.9806C15.6454 9.03606 17.544 5.5374 20.4621 3.27354C18.3175 1.62711 15.6103 0.632385 12.657 0.632385C5.6605 0.632385 0 6.15482 0 12.9806C0 19.8065 5.6605 25.3289 12.657 25.3289C15.6103 25.3289 18.3175 24.3342 20.4621 22.6878C17.544 20.4582 15.6454 16.9253 15.6454 12.9806Z" fill="#EB001B"/>
<path d="M40.9593 12.9806C40.9593 19.8065 35.2987 25.3289 28.3022 25.3289C25.3489 25.3289 22.6417 24.3342 20.4971 22.6878C23.4504 20.4239 25.3138 16.9253 25.3138 12.9806C25.3138 9.03606 23.4152 5.5374 20.4971 3.27354C22.6417 1.62711 25.3489 0.632385 28.3022 0.632385C35.2987 0.632385 40.9593 6.18911 40.9593 12.9806Z" fill="#F79E1B"/>
</svg>
