<svg width="62" height="40" viewBox="0 0 62 40" fill="none" xmlns="http://www.w3.org/2000/svg">
<path d="M23.3055 27.8984L25.9571 12.2376H30.1984L27.5448 27.8984H23.3055ZM42.8681 12.5752C42.028 12.2579 40.7112 11.9174 39.0669 11.9174C34.8759 11.9174 31.924 14.0415 31.8987 17.0857C31.8751 19.3361 34.0063 20.5915 35.615 21.3405C37.2661 22.1084 37.821 22.5978 37.813 23.2832C37.8024 24.333 36.4946 24.8124 35.2755 24.8124C33.578 24.8124 32.6761 24.575 31.2832 23.9905L30.7365 23.7417L30.1414 27.2474C31.132 27.6848 32.9638 28.0633 34.8659 28.083C39.3244 28.083 42.2187 25.9832 42.2516 22.7322C42.2674 20.9506 41.1375 19.595 38.6905 18.4772C37.208 17.7527 36.3001 17.2693 36.3097 16.5357C36.3097 15.8847 37.0782 15.1886 38.7389 15.1886C40.1256 15.1669 41.1305 15.4713 41.9133 15.7886L42.2933 15.9693L42.8681 12.5752ZM53.7825 12.2373H50.5052C49.49 12.2373 48.7301 12.5162 48.2843 13.5361L41.9854 27.8881H46.4391C46.4391 27.8881 47.1671 25.9584 47.3318 25.5346C47.8185 25.5346 52.1452 25.5413 52.7637 25.5413C52.8905 26.0897 53.2797 27.8881 53.2797 27.8881H57.2153L53.7825 12.2369V12.2373ZM48.5826 22.3501C48.9335 21.4478 50.2725 17.9722 50.2725 17.9722C50.2476 18.0139 50.6208 17.0655 50.8348 16.4775L51.1215 17.8277C51.1215 17.8277 51.9336 21.5661 52.1034 22.3499H48.5826V22.3501ZM19.7049 12.2373L15.5526 22.9173L15.1103 20.747C14.3372 18.2451 11.9288 15.5345 9.23633 14.1774L13.0332 27.8734L17.5206 27.8684L24.1979 12.2372L19.7049 12.2371" fill="#0E4595"/>
<path d="M11.6775 12.2368H4.83839L4.78418 12.5627C10.105 13.859 13.6255 16.9917 15.0873 20.7563L13.6002 13.5595C13.3435 12.5678 12.5989 12.2718 11.6777 12.2372" fill="#F2AE14"/>
</svg>
