<svg  viewBox="0 0 91 84" fill="none" xmlns="http://www.w3.org/2000/svg">
<path d="M22.7425 38.5C19.7931 33.0148 17.4999 26.9861 17.5 21.5C17.5002 11 24.8461 2 35.5 2C46.1539 2 53.5 11 53.5 21.5C53.5 26.9861 51.2068 33.0148 48.2574 38.5M22.7425 38.5H15.9683C15.0946 38.5 14.3219 39.0673 14.0602 39.9009L6.02326 65.5M22.7425 38.5C24.0747 40.9776 25.5408 43.3443 26.99 45.5M48.2574 38.5C44.3733 45.7234 39.3513 52.004 36.9301 54.8608C36.1718 55.7555 34.8267 55.7537 34.0684 54.859C32.4774 52.9818 29.7648 49.6278 26.99 45.5M48.2574 38.5H75.5152C76.3969 38.5 77.1745 39.0773 77.4297 39.9212L79.7209 47.5M65.5 82H87.3397C88.6711 82 89.6308 80.7234 89.261 79.4444L86.6744 70.5M65.5 82H3.69951C2.35638 82 1.39504 80.7024 1.78621 79.4175L6.02326 65.5M65.5 82L64.0441 70.5M61 47.5H79.7209M61 47.5H48.5C47.3954 47.5 46.5 48.3954 46.5 49.5V63.5C46.5 64.6046 45.6046 65.5 44.5 65.5H22.7425M61 47.5L64.0441 70.5M79.7209 47.5L86.6744 70.5M6.02326 65.5H22.7425M22.7425 65.5L26.99 45.5M64.0441 70.5H86.6744M29 14.5C32.4435 10.7695 38.5565 10.7695 42 14.5C45.1786 17.9435 45.1786 23.0565 42 26.5C38.5565 30.2305 32.4435 30.2305 29 26.5C25.8214 23.0565 25.8214 17.9435 29 14.5Z" stroke="#383634" stroke-width="3"/>
</svg>
