<svg  viewBox="0 0 42 40" fill="none" xmlns="http://www.w3.org/2000/svg">
<path d="M6.83789 7.48456L2.44193 23.8905M39.5899 16.2604L35.194 32.6664" stroke="#383634" stroke-width="3" stroke-linecap="round"/>
<path d="M11.7713 7.1744C12.629 3.9736 15.919 2.07411 19.1198 2.93176L31.1626 6.15862C34.3634 7.01627 36.2629 10.3063 35.4052 13.5071L30.2288 32.8256C29.3712 36.0264 26.0812 37.9259 22.8804 37.0682L10.8376 33.8414C7.63677 32.9837 5.73727 29.6937 6.59492 26.4929L11.7713 7.1744Z" stroke="#383634" stroke-width="3" stroke-linecap="round"/>
<path d="M17.004 16.7807C18.0868 17.0708 19.1998 16.4282 19.49 15.3454C19.7801 14.2626 19.1375 13.1496 18.0547 12.8594" stroke="#383634" stroke-width="3" stroke-linecap="round"/>
<path d="M23.6677 26.8602C22.5849 26.57 21.9423 25.457 22.2325 24.3742C22.5226 23.2914 23.6356 22.6488 24.7184 22.9389" stroke="#383634" stroke-width="3" stroke-linecap="round"/>
<path d="M16.1999 22.5509L25.5223 17.1686" stroke="#383634" stroke-width="3" stroke-linecap="round"/>
</svg>
