<svg  viewBox="0 0 87 82" fill="none" xmlns="http://www.w3.org/2000/svg">
<path d="M18.0186 55V55C18.0186 54.3257 18.0186 53.9885 17.9435 53.7223C17.7304 52.9667 17.095 52.4057 16.3188 52.2879C16.0453 52.2463 15.7108 52.2881 15.0417 52.3716L5.50443 53.5624C3.83579 53.7707 3.00148 53.8749 2.50074 54.4421C2 55.0092 2 55.85 2 57.5316V74.4683C2 76.1499 2 76.9907 2.50074 77.5578C3.00148 78.125 3.83579 78.2292 5.50443 78.4375L15.0417 79.6283C15.7108 79.7118 16.0453 79.7536 16.3188 79.712C17.095 79.5942 17.7304 79.0332 17.9435 78.2776C18.0186 78.0114 18.0186 77.6742 18.0186 76.9999V76.9999M18.0186 55C18.0186 55 26.2955 50.9172 32.0349 50C33.8827 49.7046 35.7305 49.4311 37.5412 49.1972M18.0186 55V76.9999M18.0186 76.9999C18.0186 76.9999 23.1933 78.7279 26.5285 78.9999C41.4696 80.2188 57.3673 77.1576 60.143 76.589C60.3466 76.5473 60.4484 76.5265 60.5645 76.4874C60.6805 76.4484 60.7737 76.4038 60.9599 76.3146C64.6783 74.5335 93.3697 60.2956 82.5935 50C82.1841 49.6087 77.6316 51.0461 74.5979 53M55.0616 24.5C70.375 24.9499 78.7994 16.4948 79.6054 5.69014C79.7276 4.05214 79.7887 3.23313 79.1347 2.58393C78.4808 1.93472 77.6198 2.00525 75.898 2.14632C57.7141 3.63607 55.0616 16 55.0616 16M55.0616 24.5V20.25M55.0616 24.5V33M55.0616 24.5C55.0616 24.5 52.4095 12.1381 34.2297 10.6467C32.506 10.5053 31.6442 10.4346 30.9893 11.0838C30.3344 11.7329 30.3956 12.5521 30.5178 14.1905C31.324 24.995 39.7483 33.4499 55.0616 33M55.0616 16V2.49999M55.0616 16V20.25M55.0616 41.5C55.0616 38.1805 55.0616 33 55.0616 33M55.0616 41.5C39.043 41.5 37.5412 49.1972 37.5412 49.1972M55.0616 41.5C71.0802 41.5 74.5979 53 74.5979 53M37.5412 49.1972C47.994 47.8464 57.2117 47.8121 58.0651 52.5C58.3345 53.9802 41.0453 55.5 41.0453 61C41.0453 61.8586 57.2809 61.2429 61.8736 61.0515C62.4619 61.027 62.756 61.0148 63.0343 60.9182C63.3125 60.8216 63.557 60.6447 64.0461 60.2907C66.0381 58.849 70.7142 55.5012 74.5979 53M55.0616 20.25L63.0709 16M55.0616 28.75L47.0523 24.5" stroke="#383634" stroke-width="3"/>
</svg>
