<svg  viewBox="0 0 40 40" fill="none" xmlns="http://www.w3.org/2000/svg">
<path d="M33.334 11.6666H6.66732C4.82637 11.6666 3.33398 13.159 3.33398 15L3.33398 31.6666C3.33398 33.5076 4.82637 35 6.66732 35H33.334C35.1749 35 36.6673 33.5076 36.6673 31.6666V15C36.6673 13.159 35.1749 11.6666 33.334 11.6666Z" stroke="#383634" stroke-width="3" stroke-linecap="round" stroke-linejoin="round"/>
<path d="M26.6673 35V8.33333C26.6673 7.44928 26.3161 6.60143 25.691 5.97631C25.0659 5.35119 24.218 5 23.334 5H16.6673C15.7833 5 14.9354 5.35119 14.3103 5.97631C13.6852 6.60143 13.334 7.44928 13.334 8.33333V35" stroke="#383634" stroke-width="3" stroke-linecap="round" stroke-linejoin="round"/>
</svg>
