<svg  viewBox="0 0 40 40" fill="none" xmlns="http://www.w3.org/2000/svg">
<path d="M13.8574 8.14286V8C13.8574 5.23858 16.096 3 18.8574 3H32.0003C34.7617 3 37.0003 5.23858 37.0003 8V21.1429C37.0003 23.9043 34.7617 26.1429 32.0003 26.1429H31.5717" stroke="#383634" stroke-width="3" stroke-linecap="round"/>
<path d="M14 15L14.9191 19.0498C15.6007 22.0536 17.9464 24.3993 20.9502 25.0809L25 26L20.9502 26.9191C17.9464 27.6007 15.6007 29.9464 14.9191 32.9502L14 37L13.0809 32.9502C12.3993 29.9464 10.0536 27.6007 7.04981 26.9191L3 26L7.04981 25.0809C10.0536 24.3993 12.3993 22.0536 13.0809 19.0498L14 15Z" stroke="#383634" stroke-width="3" stroke-linejoin="round"/>
</svg>
