<svg  viewBox="0 0 102 100" fill="none" xmlns="http://www.w3.org/2000/svg">
<path d="M51 48.5V98M51 48.5L60.5 66.5M51 48.5L41.5 65.5M51 48.5L92 31.5M51 48.5L10 31.5M51 98L89.4934 82.5088C90.7075 82.0201 91.3146 81.7758 91.6573 81.2685C92 80.7612 92 80.1068 92 78.798V51.5789M51 98L12.5066 82.5088C11.2925 82.0201 10.6854 81.7758 10.3427 81.2685C10 80.7612 10 80.1068 10 78.798V50.5789M92 51.5789L60.5 66.5M92 51.5789L98.5 48.5M60.5 66.5L98.5 48.5M41.5 65.5L10 50.5789M41.5 65.5L3.5 47.5M10 50.5789L3.5 47.5M3.5 47.5L10 31.5M98.5 48.5L92 31.5M92 31.5L51 14.5M92 31.5L98.4286 21.1427C99.6184 19.2259 100.213 18.2675 99.9082 17.3718C99.6032 16.4762 98.547 16.0801 96.4346 15.288L63.716 3.01848C62.4056 2.52711 61.7505 2.28142 61.1249 2.45364C60.4993 2.62585 60.0622 3.17224 59.188 4.26502L51 14.5M10 31.5L51 14.5M10 31.5L3.57135 21.1427C2.38159 19.2259 1.78671 18.2675 2.09175 17.3718C2.39679 16.4762 3.453 16.0801 5.56542 15.288L38.284 3.01848C39.5944 2.52711 40.2495 2.28142 40.8751 2.45364C41.5007 2.62585 41.9378 3.17224 42.812 4.26502L51 14.5M19 81.5V60.5M19 60.5L16 64.5M19 60.5L22.5 66.5M28.5 85V64M28.5 64L25.5 68M28.5 64L32 70" stroke="#383634" stroke-width="3"/>
</svg>
