<svg viewBox="0 0 103 72" fill="none" xmlns="http://www.w3.org/2000/svg">
<path d="M19 61C14.6125 61 9.46977 61 5.99901 61C4.11405 61 3.17157 61 2.58579 60.4142C2 59.8284 2 58.8856 2 57V41M19 61C19 56.0294 23.0294 52 28 52C32.9706 52 37 56.0294 37 61M19 61C19 65.9706 23.0294 70 28 70C32.9706 70 37 65.9706 37 61M37 61H71M71 61C71 56.0294 75.0294 52 80 52C84.9706 52 89 56.0294 89 61M71 61C71 65.9706 75.0294 70 80 70C84.9706 70 89 65.9706 89 61M89 61H97C98.8856 61 99.8284 61 100.414 60.4142C101 59.8284 101 58.8856 101 57V44.23C101 43.6196 101 43.3145 100.912 43.0272C100.823 42.7399 100.652 42.4874 100.309 41.9825L97.9434 38.5M61.5 17L61.8284 16.6716C62.4065 16.0935 62.6955 15.8045 63.0631 15.6522C63.4306 15.5 63.8394 15.5 64.6569 15.5H80.0008C80.9819 15.5 81.4724 15.5 81.8945 15.711C82.3167 15.922 82.6112 16.3143 83.2 17.0989L85.3774 20M61.5 17V6C61.5 4.11438 61.5 3.17157 60.9142 2.58579C60.3284 2 59.3856 2 57.5 2H6C4.11438 2 3.17157 2 2.58579 2.58579C2 3.17157 2 4.11438 2 6V41M61.5 17V37C61.5 38.8856 61.5 39.8284 60.9142 40.4142C60.3284 41 59.3856 41 57.5 41H2M97.9434 38.5H76C74.1144 38.5 73.1716 38.5 72.5858 37.9142C72 37.3284 72 36.3856 72 34.5V24C72 22.1144 72 21.1716 72.5858 20.5858C73.1716 20 74.1144 20 76 20H85.3774M97.9434 38.5L85.3774 20M10 29.5H53.5M10 21.5H53.5M10 13.5H53.5" stroke="#383634" stroke-width="3"/>
</svg>
