<svg  viewBox="0 0 40 40" fill="none" xmlns="http://www.w3.org/2000/svg">
<path d="M11.1707 8.00484C10.5454 8.01441 9.91119 8.10047 9.27964 8.26969C5.14956 9.37634 2.69863 13.6216 3.80526 17.7516C4.57419 20.6212 6.85831 22.6802 9.56623 23.2985L12.7529 35.1913C13.0388 36.2582 14.1355 36.8914 15.2024 36.6055L34.2716 31.4959C35.3386 31.21 35.9717 30.1134 35.6859 29.0464L32.4992 17.1536C34.5352 15.2642 35.4838 12.339 34.7149 9.46938C33.6083 5.33936 29.3631 2.88835 25.233 3.995C24.6014 4.16422 24.0092 4.40681 23.4629 4.71116M11.1707 8.00484C12.0002 5.69886 13.9083 3.82342 16.4548 3.14109C19.0013 2.45876 21.5915 3.12886 23.4629 4.71116M11.1707 8.00484C10.763 8.92403 10.1346 11.4604 10.8826 14.2522M23.4629 4.71116C24.2756 5.30335 26.0879 7.18567 26.836 9.97751M12.2185 19.2376C12.5302 20.4009 13.759 22.9927 16.1806 24.0537M27.1486 21.1148C27.7568 20.0613 28.813 17.3559 28.1718 14.9629M20.1952 17.1003L21.6646 22.5842M11.6675 31.1406L34.6005 24.9958" stroke="#383634" stroke-width="3" stroke-linecap="round"/>
</svg>
